<svg id="Layer_1" data-name="Layer 1" xmlns="http://www.w3.org/2000/svg" viewBox="0 0 282.84 71.6"><defs><style>.cls-1{fill:#212222;}.cls-2{fill:#e72621;}</style></defs><path class="cls-1" d="M75.42,15.42a5.71,5.71,0,0,1,2.2,4.87c0,4.87-3.65,7.93-9.66,7.93a16.13,16.13,0,0,1-9.43-2.82,1.25,1.25,0,0,1-.59-1,1.16,1.16,0,0,1,1.18-1.18,1.42,1.42,0,0,1,.86.31A12.37,12.37,0,0,0,67.92,26c4.6,0,7.38-2.12,7.38-5.69a3.65,3.65,0,0,0-1.68-3.22,17.2,17.2,0,0,0-6.06-2c-6.32-1.14-9-3.34-9-7.46,0-4.71,3.38-7.58,9.15-7.58,3.19,0,5.7.74,7.51,2.24a1.2,1.2,0,0,1,.43.94,1.1,1.1,0,0,1-1.06,1.14A1.4,1.4,0,0,1,73.62,4a11.28,11.28,0,0,0-5.94-1.69c-4.75,0-6.87,2.16-6.87,5.26a3.82,3.82,0,0,0,1.49,3.26c1,.75,3,1.38,5.74,1.93C71.53,13.46,74,14.32,75.42,15.42Z"/><path class="cls-1" d="M98.2.54a1.09,1.09,0,0,1,1.21,1,1.11,1.11,0,0,1-1.21,1H86.1V12.84H97.92c1.65-.26,1.61,2.36,0,2.36H86.1V25.67H98.28a1.06,1.06,0,1,1,0,2.09H86a2,2,0,0,1-2.21-2.09V2.61A2,2,0,0,1,86,.54Z"/><path class="cls-1" d="M128.85.25A1.12,1.12,0,0,1,130,1L139,25.51c.12.28.28.44.55.44s.39-.16.51-.44L149.16,1a1.1,1.1,0,0,1,1.1-.79,1.14,1.14,0,0,1,1.06,1.62l-8.92,24c-.59,1.53-1.53,2.31-2.83,2.31s-2.24-.78-2.83-2.31l-9-24.08a1.76,1.76,0,0,1-.08-.4A1.15,1.15,0,0,1,128.85.25Z"/><path class="cls-1" d="M176,26.26,167.48,2.73C166.81.92,165.67,0,164,0s-2.75.9-3.42,2.75L152,26.25a1.16,1.16,0,0,0,1.06,1.61,1.11,1.11,0,0,0,1.1-.76l3.22-9h13.16l3.3,9a1.11,1.11,0,0,0,1.1.77,1.19,1.19,0,0,0,1.14-1.22A1.69,1.69,0,0,0,176,26.26ZM158.28,15.72l4.56-12.56c.28-.67.67-1,1.18-1a1.14,1.14,0,0,1,1.18,1l4.51,12.58Z"/><path class="cls-1" d="M183,2.63H175.9a1.05,1.05,0,1,1,0-2.09h16.24a1.05,1.05,0,1,1,0,2.09h-6.81V26.72a1.18,1.18,0,0,1-2.36,0Z"/><path class="cls-1" d="M230.36,1.32c0-1.31,2.36-1.31,2.36,0V26.85A1.18,1.18,0,0,1,231.54,28a1.16,1.16,0,0,1-1.18-1.18Z"/><path class="cls-1" d="M280,.54a1.09,1.09,0,0,1,1.22,1,1.11,1.11,0,0,1-1.22,1H267.8V12.84h11.92c1.65-.26,1.61,2.36,0,2.36H267.8V25.67h12.27a1.06,1.06,0,1,1,0,2.09H267.76a2.07,2.07,0,0,1-2.32-2.09V2.61A2.06,2.06,0,0,1,267.76.54Z"/><path class="cls-1" d="M209.41,0a14.12,14.12,0,1,0,0,28.23c8.18,0,14.6-6.22,14.6-14.12S217.59,0,209.41,0Zm.08,26.25a12.06,12.06,0,0,1-12.3-12.14,12.26,12.26,0,0,1,24.52,0A12,12,0,0,1,209.49,26.25Z"/><path class="cls-1" d="M14.59,0a14.12,14.12,0,1,0,0,28.23c8.18,0,14.6-6.22,14.6-14.12S22.77,0,14.59,0Zm.08,26.25A12.06,12.06,0,0,1,2.37,14.11,12.06,12.06,0,0,1,14.67,2,12,12,0,0,1,26.89,14.11,12,12,0,0,1,14.67,26.25Z"/><path class="cls-1" d="M50.69,13.62,49.14,13c1.27-1,2.46-2.31,2.46-5.58a6.48,6.48,0,0,0-2.09-4.88,7.6,7.6,0,0,0-5.69-2H32.69V2.26s2.16.23,2.16,2l0,21.46A2.2,2.2,0,0,0,37.17,28H46.4c4.76,0,8.05-2.48,8.05-7.86C54.45,16.83,52.45,14.33,50.69,13.62ZM37.14,5.71h0V2.89h5.68c3.57,0,6.42,1.68,6.42,4.94s-1.81,5-5.38,5H37.14Zm8.91,20H37.14v-11H46.6a5.16,5.16,0,0,1,5.46,5.5C52.06,23.75,50.06,25.67,46.05,25.67Z"/><path class="cls-1" d="M261,25.84l-.59-.89-4.22-6.46a10,10,0,0,0-3-3.18,7.11,7.11,0,0,0,4.63-7c0-4.58-3.48-7.81-9.32-7.81l-1.7.07H239V1.91s2.1.26,2.1,2v22.9A1.2,1.2,0,0,0,242.27,28a1.24,1.24,0,0,0,1.18-1.18V16.24h3.14l.63,0c3,0,4.12-.72,7.46,4.53l3.5,5.5.79,1.22a1.32,1.32,0,0,0,1,.48,1.25,1.25,0,0,0,1.29-1.24A1.37,1.37,0,0,0,261,25.84Zm-12.88-12-4.68,0V2.89h4.6c4.49,0,7.21,2.22,7.21,5.48S253.64,13.85,248.13,13.85Z"/><path class="cls-1" d="M126.4,25.84l-.59-.89-4.22-6.46a10,10,0,0,0-3-3.18,7.1,7.1,0,0,0,4.63-7c0-4.58-3.48-7.77-9.31-7.77l-5,0h-4.48V1.91a2.11,2.11,0,0,1,1.83,2v22.9A1.21,1.21,0,0,0,107.44,28a1.24,1.24,0,0,0,1.18-1.18V16.08s.82,0,3.89,0,4.17-.68,7.51,4.58l3.52,5.52.8,1.23a1.36,1.36,0,0,0,1,.5,1.25,1.25,0,0,0,1.29-1.25A1.33,1.33,0,0,0,126.4,25.84Zm-13-12-4.79,0V2.89h4.82c4.48,0,7.15,2.22,7.15,5.48S118.92,13.85,113.41,13.85Z"/><path class="cls-1" d="M15.67,39.67a2.13,2.13,0,0,0-2.09,2.11v7.16c0-2.24-3.35-3-5.11-3-5,0-7.93,2.89-8.35,7.85a32,32,0,0,0,0,5.54c.43,4.88,3.75,8.05,8.9,8.05a13.85,13.85,0,0,0,4.66-.79A14.93,14.93,0,0,0,17,65a1.81,1.81,0,0,0,.76-1.57V41.78A2.09,2.09,0,0,0,15.67,39.67ZM13.58,62a8.68,8.68,0,0,1-4.49,1.4c-3,0-4.6-1.52-4.84-4.57a30.06,30.06,0,0,1,0-4.56C4.41,51.41,5.93,50,8.78,50c1.91,0,4.54,1.32,4.8,5.39Z"/><path class="cls-1" d="M56.76,55.08c3.67.9,5.5,2.89,5.5,5.89A5.67,5.67,0,0,1,60,65.66a8.65,8.65,0,0,1-5.62,1.76,10.94,10.94,0,0,1-7.19-2.23,2,2,0,0,1-.39-2.65c.7-1,1.6-1.1,2.74-.4a8.32,8.32,0,0,0,5,1.53c2.31,0,3.59-1,3.59-2.58,0-1.13-.78-1.84-2.69-2.3s-2.77-.63-2.81-.67C48.91,57.18,47,55.23,47,52.27a5.48,5.48,0,0,1,2.14-4.57A8.81,8.81,0,0,1,54.73,46a9,9,0,0,1,5.89,1.83,2,2,0,0,1,.2,2.66c-.66.78-1.56.86-2.7.27a6.91,6.91,0,0,0-3.58-1c-2.35,0-3.52.82-3.52,2.42,0,1.09.7,1.68,2.69,2.18Z"/><path class="cls-1" d="M85.78,67.42c-4.25,0-6.49-2.81-6.49-7V44.07A2.09,2.09,0,0,1,81.39,42a2.13,2.13,0,0,1,2.09,2.11v3.07h5.35a1.83,1.83,0,1,1,0,3.66H83.48v9.63c0,2.07.92,3.08,2.76,3.08a14.37,14.37,0,0,0,2.8-.58,1.89,1.89,0,0,1,2.53,1.83,2,2,0,0,1-1.41,1.91A10.84,10.84,0,0,1,85.78,67.42Z"/><path class="cls-1" d="M113.91,53.83a7.9,7.9,0,0,0-2.77-5.67,10,10,0,0,0-12.49,0,8.1,8.1,0,0,0-2.78,5.67,47.22,47.22,0,0,0,0,5.58,8.48,8.48,0,0,0,2.81,5.74,8.91,8.91,0,0,0,6.21,2.27,9,9,0,0,0,6.25-2.27,8.19,8.19,0,0,0,2.77-5.74A43.29,43.29,0,0,0,113.91,53.83Zm-4.1,5.07a4.92,4.92,0,0,1-9.8,0,30.75,30.75,0,0,1,0-4.53,4.93,4.93,0,0,1,9.8,0A41.44,41.44,0,0,1,109.81,58.9Z"/><path class="cls-1" d="M120.14,48.44a1.93,1.93,0,0,1,1.92-2.19,2,2,0,0,1,2,2.19V59.06c0,2.69,1.85,4.37,4.66,4.37a9.63,9.63,0,0,0,4.77-1.29V48.4a2,2,0,1,1,3.93,0V63.51a1.74,1.74,0,0,1-.74,1.56,13.46,13.46,0,0,1-8,2.35c-5.31,0-8.56-3-8.56-8.32Z"/><path class="cls-1" d="M151,67.42c-4.26,0-6.47-2.81-6.47-7V44.07A2.08,2.08,0,0,1,146.58,42a2.14,2.14,0,0,1,2.1,2.11v3.07H154a1.83,1.83,0,1,1,0,3.66h-5.32v9.63c0,2.07.9,3.08,2.74,3.08a14.32,14.32,0,0,0,2.79-.58,1.89,1.89,0,0,1,2.53,1.83,2,2,0,0,1-1.4,1.91A10.87,10.87,0,0,1,151,67.42Z"/><path class="cls-1" d="M162.37,57.87a2.08,2.08,0,0,1-2.11-2.09,2.14,2.14,0,0,1,2.11-2.1h5.34a2.1,2.1,0,0,1,2.11,2.1,2.13,2.13,0,0,1-2.11,2.09Z"/><path class="cls-1" d="M41.81,61.15a1.89,1.89,0,0,0-3.19-.53l-.18.14a13.45,13.45,0,0,1-3.71,2.29c-2.51.92-4.7.36-6-1.63a5.22,5.22,0,0,1-.26-.47c2.86-.45,7-3,9.55-4.79.77-.53,1.41-1,1.84-1.31l.63-.47a.64.64,0,0,0,.23-.43c0-6.46-6.33-9.33-11.33-7.7a8.32,8.32,0,0,0-5.24,5,16.53,16.53,0,0,0-.55,7.53,19.39,19.39,0,0,0,.89,3.1,9,9,0,0,0,4.59,4.8,8.36,8.36,0,0,0,4,.59,14.61,14.61,0,0,0,8.3-4.13A1.79,1.79,0,0,0,41.81,61.15ZM27.7,56.49c-.48-.64-.17-2.15,0-3a4.85,4.85,0,0,1,4.49-3.81,4.28,4.28,0,0,1,4.67,2.76c-.29.22-.67.49-1.11.76s-.85.53-1.33.8a40.09,40.09,0,0,1-5.48,2.66C28.29,56.88,27.92,56.77,27.7,56.49Z"/><path class="cls-1" d="M228.71,67.42c-4.25,0-6.46-2.81-6.46-7V44.07A2.08,2.08,0,0,1,224.34,42a2.13,2.13,0,0,1,2.09,2.11v3.07h5.32a1.83,1.83,0,1,1,0,3.66h-5.32v9.63c0,2.07.9,3.08,2.74,3.08a14.18,14.18,0,0,0,2.79-.58,1.89,1.89,0,0,1,2.53,1.83,2,2,0,0,1-1.4,1.91A10.87,10.87,0,0,1,228.71,67.42Z"/><path class="cls-1" d="M257.51,67.42c-4.26,0-6.46-2.81-6.46-7V44.07A2.08,2.08,0,0,1,253.14,42a2.13,2.13,0,0,1,2.09,2.11v3.07h5.31a1.83,1.83,0,1,1,0,3.66h-5.31v9.63c0,2.07.9,3.08,2.73,3.08a14.18,14.18,0,0,0,2.79-.58,1.88,1.88,0,0,1,2.53,1.83,2,2,0,0,1-1.4,1.91A10.78,10.78,0,0,1,257.51,67.42Z"/><path class="cls-1" d="M277.34,55.08c3.67.9,5.5,2.89,5.5,5.89a5.67,5.67,0,0,1-2.22,4.69A8.66,8.66,0,0,1,275,67.42a10.94,10.94,0,0,1-7.19-2.23,2,2,0,0,1-.39-2.65c.7-1,1.6-1.1,2.73-.4a8.37,8.37,0,0,0,5,1.53c2.31,0,3.59-1,3.59-2.58,0-1.13-.78-1.84-2.69-2.3s-2.77-.63-2.81-.67c-3.79-.94-5.66-2.89-5.66-5.85a5.48,5.48,0,0,1,2.14-4.57A8.81,8.81,0,0,1,275.31,46a9,9,0,0,1,5.89,1.83,2,2,0,0,1,.2,2.66c-.66.78-1.56.86-2.7.27a6.92,6.92,0,0,0-3.59-1c-2.34,0-3.51.82-3.51,2.42,0,1.09.7,1.68,2.69,2.18Z"/><path class="cls-1" d="M193.13,54c-.43-4.89-3.74-8-8.89-8a13.73,13.73,0,0,0-4.64.78,14.15,14.15,0,0,0-3.28,1.64,1.71,1.71,0,0,0-.68,1.57V69.49a2,2,0,0,0,2,2.11,2,2,0,0,0,2-2.11V64.42c0,2.25,3.4,3,5.16,3,5,0,8-2.89,8.38-7.85A33.08,33.08,0,0,0,193.13,54ZM189,59.07c-.15,2.89-1.7,4.34-4.55,4.34-1.91,0-4.58-1.33-4.84-5.39V51.34a9.72,9.72,0,0,1,4.53-1.4c3,0,4.62,1.52,4.85,4.56A28.83,28.83,0,0,1,189,59.07Z"/><path class="cls-1" d="M216.7,61.15a1.89,1.89,0,0,0-3.19-.53l-.17.14a13.34,13.34,0,0,1-3.72,2.29c-2.5.92-4.7.36-6-1.63a5.26,5.26,0,0,1-.27-.47c2.87-.45,7-3,9.56-4.79.77-.53,1.4-1,1.84-1.31l.62-.47a.64.64,0,0,0,.23-.43c0-6.46-6.33-9.33-11.33-7.7a8.32,8.32,0,0,0-5.24,5,16.53,16.53,0,0,0-.54,7.53,19.42,19.42,0,0,0,.88,3.1,9,9,0,0,0,4.6,4.8,8.3,8.3,0,0,0,4,.59,14.61,14.61,0,0,0,8.3-4.13A1.77,1.77,0,0,0,216.7,61.15Zm-14.1-4.66c-.49-.64-.17-2.15,0-3a4.85,4.85,0,0,1,4.49-3.81,4.28,4.28,0,0,1,4.67,2.76,11.88,11.88,0,0,1-1.1.76c-.41.26-.86.53-1.34.8a40.67,40.67,0,0,1-5.47,2.66C203.19,56.88,202.81,56.77,202.6,56.49Z"/><path class="cls-1" d="M241.38,66.86a6.41,6.41,0,0,0,2.86.55c1.76,0,4.31-.89,4.47-2.65.11-1.25-1-2.19-2.55-1.84-.78.26-.7.6-1.56.57a2,2,0,0,1-2.19-2.2V55.16a2.15,2.15,0,0,0-2.1-2.11,2.09,2.09,0,0,0-2.09,2.11v6.12c0,3.12,1.16,4.61,3.15,5.54"/><circle class="cls-2" cx="240.09" cy="47.13" r="3.52"/></svg>